<svg width="32" height="32" viewBox="0 0 32 32" fill="none" xmlns="http://www.w3.org/2000/svg">
<path d="M21.059 9.07016C21.894 9.07016 22.6948 8.75039 23.2852 8.1812C23.8756 7.61201 24.2073 6.84003 24.2073 6.03508C24.2073 5.23013 23.8756 4.45814 23.2852 3.88895C22.6948 3.31977 21.894 3 21.059 3C20.2241 3 19.4233 3.31977 18.8329 3.88895C18.2425 4.45814 17.9108 5.23013 17.9108 6.03508C17.9108 6.84003 18.2425 7.61201 18.8329 8.1812C19.4233 8.75039 20.2241 9.07016 21.059 9.07016ZM14.7346 11.9582C13.8622 12.1673 13.2668 12.4816 12.7862 12.8714C12.0656 13.4569 11.4835 14.3013 10.6972 15.6286C10.513 15.9392 10.2084 16.1666 9.85036 16.2607C9.49231 16.3548 9.11015 16.308 8.78795 16.1304C8.46575 15.9529 8.2299 15.6592 8.13228 15.314C8.03467 14.9689 8.08329 14.6004 8.26744 14.2898C9.0503 12.9699 9.84156 11.735 10.984 10.8082C12.1761 9.83972 13.6355 9.29205 15.6035 9.08095C16.4263 8.99327 17.3315 9.0108 18.1802 9.37569C19.0708 9.75946 19.7214 10.4467 20.1649 11.3653C20.7624 12.6016 21.2067 13.3375 21.5621 13.7644C21.7335 13.9688 21.8531 14.0639 21.921 14.1064C21.9748 14.1401 21.9979 14.1428 22.0063 14.1441C22.0672 14.1509 22.2652 14.1441 22.8444 13.8966C23.097 13.7887 23.3726 13.6592 23.7099 13.5007L23.7903 13.4629C24.2027 13.2667 24.6188 13.0778 25.0384 12.8964C25.3772 12.753 25.761 12.7448 26.106 12.8736C26.451 13.0024 26.7291 13.2576 26.8794 13.5835C27.0297 13.9094 27.04 14.2794 26.908 14.6126C26.7761 14.9459 26.5126 15.2151 26.1753 15.3615C25.7865 15.5298 25.4009 15.7049 25.0188 15.8869L24.9272 15.9301C24.6046 16.0819 24.28 16.235 23.9757 16.3645C23.3461 16.6329 22.5415 16.9243 21.6691 16.8224C20.7484 16.7145 20.039 16.2134 19.4548 15.5409L17.5428 19.0974L20.1873 22.4144C20.3447 22.6127 20.442 22.8487 20.4693 23.0969L21.0513 28.4899C21.0735 28.6676 21.0588 28.8478 21.008 29.0199C20.9573 29.1921 20.8715 29.3528 20.7557 29.4926C20.6399 29.6325 20.4964 29.7487 20.3335 29.8346C20.1706 29.9205 19.9916 29.9742 19.807 29.9928C19.6224 30.0113 19.4357 29.9942 19.258 29.9425C19.0803 29.8908 18.915 29.8055 18.7718 29.6917C18.6286 29.5778 18.5103 29.4376 18.4239 29.2792C18.3375 29.1208 18.2846 28.9474 18.2683 28.7692L17.7268 23.7559L16.1205 21.7406L16.1065 21.7656L16.0478 21.6495L13.08 17.9265C12.9341 17.7435 12.8394 17.5275 12.8049 17.2991C12.7703 17.0707 12.7971 16.8376 12.8827 16.6221L14.7346 11.9582Z" fill="#0B0B0B"/>
<path d="M12.6161 19.8663L11.5863 22.5371L7.52859 22.2269C7.34411 22.2104 7.15806 22.2293 6.98124 22.2827C6.80442 22.3361 6.64035 22.4227 6.49856 22.5377C6.35677 22.6527 6.24007 22.7937 6.15525 22.9525C6.07043 23.1113 6.01916 23.2847 6.00443 23.4628C5.9897 23.6408 6.0118 23.8199 6.06944 23.9897C6.12708 24.1595 6.21912 24.3165 6.34021 24.4517C6.46131 24.5869 6.60905 24.6975 6.77486 24.7772C6.94067 24.8569 7.12125 24.9041 7.30612 24.916L12.4188 25.3072C12.7223 25.3304 13.0253 25.2577 13.282 25.0999C13.5386 24.9422 13.735 24.7081 13.8411 24.4331L14.6282 22.3908L12.6161 19.8663Z" fill="#0B0B0B"/>
</svg>
