<svg width="32" height="32" viewBox="0 0 32 32" fill="none" xmlns="http://www.w3.org/2000/svg">
<path d="M20.8 6.90039C24.5529 6.90046 27.7667 9.70955 27.7668 13.373C27.7668 15.8695 26.7017 18.0595 25.2356 19.9053C23.7737 21.7453 21.8605 23.305 20.0354 24.5703C19.3364 25.0542 18.6297 25.5012 17.9788 25.832C17.373 26.1409 16.6588 26.4335 16.0002 26.4336C15.3415 26.4336 14.6278 26.1409 14.0208 25.832L14.0198 25.8311C13.3085 25.456 12.6225 25.0347 11.9661 24.5703L11.2776 24.082C9.66806 22.9106 8.04425 21.5154 6.76392 19.9053C5.29779 18.0595 4.23364 15.8695 4.23364 13.373C4.23381 9.70966 7.4467 6.90062 11.1995 6.90039C13.1061 6.90039 14.7848 7.77813 16.0002 8.91992C17.2156 7.7783 18.8923 6.90039 20.8 6.90039ZM20.8 9.09961C19.2471 9.09961 17.7855 10.0293 16.8723 11.2197C16.7697 11.3534 16.6377 11.4616 16.4866 11.5361C16.3353 11.6107 16.1689 11.6494 16.0002 11.6494C15.8315 11.6494 15.6643 11.6108 15.5129 11.5361C15.3619 11.4615 15.2298 11.3534 15.1272 11.2197C14.214 10.0293 12.7537 9.09961 11.1995 9.09961C8.47384 9.09983 6.43303 11.1027 6.43286 13.373C6.43286 15.214 7.21543 16.9356 8.48657 18.5352C9.7606 20.1376 11.4781 21.5565 13.218 22.7617C13.8761 23.2177 14.4921 23.6029 15.0198 23.8721C15.3017 24.0157 15.5229 24.1064 15.6868 24.1611C15.853 24.2167 15.9545 24.2334 16.0002 24.2334C16.0461 24.2333 16.1477 24.2168 16.3137 24.1611C16.3956 24.1337 16.4919 24.0974 16.6028 24.0498L16.9807 23.8711C17.6045 23.5407 18.2065 23.1707 18.7825 22.7627V22.7617C20.5213 21.5564 22.2399 20.139 23.5139 18.5352C24.785 16.9357 25.5667 15.2139 25.5667 13.373C25.5665 11.1026 23.5258 9.09967 20.8 9.09961Z" fill="#0B0B0B" stroke="#0B0B0B" stroke-width="0.2"/>
</svg>
