<svg width="32" height="32" viewBox="0 0 32 32" fill="none" xmlns="http://www.w3.org/2000/svg">
<path fill-rule="evenodd" clip-rule="evenodd" d="M5 16C5 13.0826 6.15893 10.2847 8.22183 8.22183C10.2847 6.15893 13.0826 5 16 5C18.9174 5 21.7153 6.15893 23.7782 8.22183C25.8411 10.2847 27 13.0826 27 16C27 18.9174 25.8411 21.7153 23.7782 23.7782C21.7153 25.8411 18.9174 27 16 27C13.0826 27 10.2847 25.8411 8.22183 23.7782C6.15893 21.7153 5 18.9174 5 16ZM16.9706 9.52941C16.9706 9.272 16.8683 9.02512 16.6863 8.8431C16.5043 8.66108 16.2574 8.55882 16 8.55882C15.7426 8.55882 15.4957 8.66108 15.3137 8.8431C15.1317 9.02512 15.0294 9.272 15.0294 9.52941V16C15.0293 16.1646 15.0711 16.3264 15.1508 16.4704C15.2305 16.6144 15.3455 16.7357 15.4849 16.8231L19.3673 19.2495C19.5856 19.3861 19.8492 19.4304 20.1001 19.3727C20.2244 19.3441 20.3418 19.2913 20.4457 19.2173C20.5495 19.1433 20.6378 19.0496 20.7054 18.9415C20.7731 18.8334 20.8187 18.7131 20.8399 18.5874C20.861 18.4616 20.8571 18.3329 20.8285 18.2087C20.7999 18.0844 20.7472 17.967 20.6732 17.8632C20.5992 17.7593 20.5055 17.6711 20.3974 17.6034L16.9706 15.4616V9.52941Z" fill="#0B0B0B"/>
</svg>
