<svg width="32" height="32" viewBox="0 0 32 32" fill="none" xmlns="http://www.w3.org/2000/svg">
<path d="M7.42857 4C5.5375 4 4 5.5375 4 7.42857V24.5714C4 26.4625 5.5375 28 7.42857 28H24.5714C26.4625 28 28 26.4625 28 24.5714V7.42857C28 5.5375 26.4625 4 24.5714 4H7.42857ZM14.2857 16H16.8571C17.8054 16 18.5714 15.2339 18.5714 14.2857C18.5714 13.3375 17.8054 12.5714 16.8571 12.5714H14.2857V16ZM16.8571 19.4286H14.2857V21.1429C14.2857 22.0911 13.5196 22.8571 12.5714 22.8571C11.6232 22.8571 10.8571 22.0911 10.8571 21.1429V11.2857C10.8571 10.1018 11.8161 9.14286 13 9.14286H16.8571C19.6964 9.14286 22 11.4464 22 14.2857C22 17.125 19.6964 19.4286 16.8571 19.4286Z" fill="#0B0B0B"/>
</svg>
