<svg width="32" height="32" viewBox="0 0 32 32" fill="none" xmlns="http://www.w3.org/2000/svg">
<path d="M14.4623 30.138L14.4172 30.1517C14.4328 30.0938 14.4536 29.99 14.4536 29.8257C14.4536 29.5678 14.3183 29.0861 14.281 29.0172C14.2438 28.9482 14.203 28.8989 14.1128 28.9236C14.0443 28.9423 13.5189 29.201 13.1833 29.2138C12.5599 29.2368 12.259 28.6878 12.259 28.6878C12.259 28.6878 11.9131 28.8818 11.6382 29.0393C11.3625 29.1967 11.0425 29.4325 10.8067 29.5729C10.6055 29.6929 10.3758 29.75 10.1382 29.7797C9.90062 29.8095 9.70726 29.7993 9.65004 29.8044C9.59281 29.8095 9.11159 29.7525 9.09425 30.2197L9.09685 30.3278L9.05003 30.3057C9.05003 30.3057 9.00841 30.4504 9.00494 30.4776C9.00147 30.5057 8.98413 30.5219 9.04482 30.5593C9.10552 30.5968 9.37258 30.7091 9.71247 30.7925C10.0524 30.8759 10.6038 30.9993 11.0295 30.9993C11.4553 30.9993 11.8177 30.9159 12.0275 30.8666C12.2382 30.8172 12.6891 30.7227 12.7325 30.7423C12.7758 30.7619 12.833 30.9049 12.8825 30.9491C12.9328 30.9934 14.2784 30.8802 14.3747 30.8606C14.4084 30.8548 14.4392 30.8381 14.4622 30.8131C14.4851 30.7881 14.4989 30.7563 14.5013 30.7227V30.1704C14.503 30.1474 14.4831 30.1321 14.4623 30.138ZM23.9541 26.9448L23.5171 26.5797C23.5132 26.5764 23.5087 26.5741 23.5038 26.5728C23.499 26.5716 23.4939 26.5714 23.4889 26.5724C23.484 26.5734 23.4793 26.5755 23.4753 26.5785C23.4713 26.5816 23.4681 26.5854 23.4659 26.5899L23.4468 26.6333C23.38 26.5429 23.3016 26.4614 23.2136 26.3907C23.0098 26.2205 22.5399 26.0043 22.461 25.9882C22.3821 25.9711 22.3162 25.9694 22.2763 26.0537C22.2459 26.1184 22.1037 26.6886 21.8913 26.9524C21.4977 27.4418 20.8647 27.3082 20.8647 27.3082L20.732 28.0129C20.6739 28.3261 20.6488 28.7261 20.6037 28.9984C20.5584 29.2305 20.4632 29.4504 20.3245 29.6436C20.191 29.8444 20.0557 29.984 20.021 30.0317C19.9872 30.0785 19.6248 30.407 19.982 30.7295L20.0696 30.7985L20.0219 30.8198C20.0219 30.8198 20.1086 30.9466 20.1277 30.9679C20.1468 30.9891 20.1494 31.013 20.2179 30.9917C20.2864 30.9704 20.5525 30.841 20.843 30.6376C21.1344 30.4334 21.5956 30.0955 21.8766 29.7712C22.1584 29.447 22.3309 29.1159 22.4315 28.9236C22.5321 28.7312 22.7549 28.3252 22.7991 28.3048C22.8433 28.2844 22.9933 28.3355 23.0618 28.3269C23.1295 28.3184 23.9298 27.2188 23.9783 27.1329C24.0269 27.0469 23.9827 26.9686 23.9541 26.9448Z" fill="#434347"/>
<path d="M15.5801 10.7913C16.3839 11.6083 18.235 13.2509 18.2758 13.4475C18.4934 14.4884 18.8082 15.6654 18.7267 16.3871C18.6677 16.9106 19.0527 17.4918 19.2044 17.7344C19.3934 18.0357 19.8816 18.4987 20.1937 18.4663C20.388 18.4468 20.6854 18.1004 20.5267 17.925C20.2172 17.5846 20.2683 17.0663 20.0741 16.5982C19.6848 15.6578 20.0351 13.8798 19.501 12.7147C19.279 12.2322 18.8654 11.2738 17.0524 9.62869C16.6093 10.0219 15.5801 10.7913 15.5801 10.7913Z" fill="#E3BC9B"/>
<path d="M12.7723 29.481C11.6746 29.5738 11.1656 29.2827 11.28 29.127C11.4231 28.9329 11.391 28.7891 11.3928 28.6708C11.417 26.5933 10.9844 23.572 10.9844 23.572C10.9844 23.2758 10.987 22.88 11.2549 22.2426C11.9295 20.64 14.6807 15.6978 14.6807 15.6978C14.7937 15.5037 14.9445 15.3333 15.1246 15.1965C15.3047 15.0596 15.5105 14.9589 15.7302 14.9001C15.9499 14.8413 16.1793 14.8255 16.4052 14.8538C16.6311 14.882 16.8492 14.9536 17.0469 15.0646C17.8784 15.5309 18.0198 16.2603 17.692 17.3872C17.0721 19.5217 15.1212 22.1549 14.3078 23.7507C14.5021 25.5558 14.157 27.0299 14.3382 28.7355C14.3642 28.9806 13.87 29.3883 12.7723 29.481Z" fill="#82957B"/>
<path d="M22.0805 27.5474C21.7649 28.018 21.2394 28.3491 20.6949 28.2606C19.5946 26.6231 16.3986 23.732 16.3986 23.732C16.1896 23.5192 15.9113 23.2324 15.6529 22.5907C15.0044 20.9779 13.487 15.5463 13.487 15.5463C13.4309 15.3297 13.4189 15.1043 13.4515 14.8831C13.4842 14.662 13.5609 14.4493 13.6774 14.2572C13.7938 14.0652 13.9476 13.8975 14.1301 13.7638C14.3126 13.6301 14.5201 13.5331 14.7408 13.4781C15.6685 13.2466 16.2867 13.6756 16.8477 14.7088C17.9116 16.6671 18.3712 19.8919 18.9148 21.594C20.5362 22.9285 20.9811 24.6605 22.6215 25.978C22.5652 26.7073 22.3961 27.0767 22.0805 27.5474Z" fill="#B7C8B1"/>
<path d="M14.9766 1.57828C13.5754 1.16891 11.6011 2.02935 11.4129 3.59705C11.1502 5.78433 12.5601 7.49926 13.9283 7.23627C15.3624 6.96052 16.2243 6.57073 16.683 5.05835C17.1408 3.54598 16.3778 1.98765 14.9766 1.57828Z" fill="#E3BC9B"/>
<path d="M16.3301 5.46773C18.1032 3.02768 13.3725 3.64982 13.3725 3.64982C12.476 3.7579 13.2234 5.17581 12.8705 6.01412C12.6286 6.59456 13.8763 6.78605 13.8763 6.78605C13.8763 6.78605 14.4364 6.73073 14.5248 7.39543L14.5257 7.40139C14.5474 7.57075 14.5465 7.77416 14.4893 8.05076C14.204 9.421 16.1038 10.0866 16.3882 8.71375C16.5009 8.17076 16.3986 7.70948 16.2807 7.28649L16.2694 7.24819C16.0916 6.61839 15.8922 6.07114 16.3301 5.46773Z" fill="#E3BC9B"/>
<path d="M16.7212 1.89574C15.9747 1.06423 13.6631 0.469326 12.3373 1.71276C11.3367 1.62765 11.0393 2.58001 11.1694 3.10257C11.2734 3.5196 12.3417 3.54003 12.6772 4.32047C12.8446 4.10345 12.8567 3.68727 12.7978 3.47024C13.1628 3.76046 13.0891 4.60984 14.4625 5.04474C15.7909 5.46518 15.6608 6.59542 15.6608 6.59542C15.6608 6.59542 16.3085 6.22519 16.7316 5.65157C17.5415 4.55707 17.5441 2.81236 16.7212 1.89574Z" fill="#C1694F"/>
<path d="M18.7884 17.3931C18.7884 17.3931 18.7884 18.2442 17.0543 18.2442H12.8074C13.6744 14.3479 12.7259 13.2739 13.0163 10.9411C13.3293 8.42697 14.9993 6.88055 16.0294 7.24737C17.6092 7.80993 18.3644 9.49507 18.5716 12.233C18.7789 14.9709 18.7884 17.3931 18.7884 17.3931Z" fill="#FDC020"/>
<path d="M14.2363 10.4074C14.0915 11.5981 13.9571 14.1803 13.821 14.3437C13.0987 15.2126 12.3279 16.2501 11.6715 16.6663C11.1955 16.9676 10.9683 17.6654 10.8677 17.9488C10.7429 18.3012 10.6831 19.0025 10.9172 19.2314C11.0637 19.3744 11.5501 19.3821 11.59 19.1378C11.668 18.6621 12.1328 18.3574 12.3938 17.8893C12.9175 16.9497 14.6334 16.045 15.2482 14.839C15.5031 14.3386 16.0251 13.3675 16.1872 10.8142C15.5629 10.7206 14.2363 10.4074 14.2363 10.4074Z" fill="#E3BC9B"/>
</svg>
