<svg width="32" height="32" viewBox="0 0 32 32" fill="none" xmlns="http://www.w3.org/2000/svg">
<path d="M27.7748 5.82154L25.5655 4.32123C25.2722 4.12381 24.9128 4.05017 24.5655 4.11631C24.2182 4.18246 23.911 4.38305 23.7108 4.67446L12.896 20.624L7.92492 15.6529C7.67377 15.4045 7.33478 15.2652 6.98154 15.2652C6.62829 15.2652 6.28931 15.4045 6.03816 15.6529L4.15139 17.5434C4.02731 17.6673 3.92889 17.8144 3.86173 17.9764C3.79458 18.1384 3.76001 18.312 3.76001 18.4874C3.76001 18.6627 3.79458 18.8364 3.86173 18.9983C3.92889 19.1603 4.02731 19.3075 4.15139 19.4314L11.7932 27.0769C12.2228 27.504 12.8948 27.8338 13.5003 27.8338C14.1058 27.8338 14.7163 27.4523 15.1089 26.8812L28.1305 7.67385C28.3285 7.38091 28.4022 7.0214 28.3356 6.67416C28.2689 6.32691 28.0672 6.02029 27.7748 5.82154Z" fill="#0B0B0B"/>
</svg>
