<svg width="32" height="32" viewBox="0 0 32 32" fill="none" xmlns="http://www.w3.org/2000/svg">
<path d="M28.2531 23.1889C28.2531 25.846 22.7672 28 16 28C9.23278 28 3.74683 25.846 3.74683 23.1889C3.74683 20.5318 9.23272 18.3777 16 18.3777C22.7672 18.3777 28.2531 20.5317 28.2531 23.1889Z" fill="#E0E4D9"/>
<path d="M31 20.6356C31 23.8884 24.2843 26.5254 16 26.5254C7.71574 26.5254 1 23.8885 1 20.6356C1 17.3828 7.71574 14.746 16 14.746C24.2843 14.7459 31 17.3828 31 20.6356Z" fill="#B7C8B1"/>
<path d="M28.6014 7.32348C28.6014 7.33662 28.5984 7.34953 28.5977 7.36261C28.5185 9.17995 22.9658 10.6468 16.1237 10.6468C9.28198 10.6468 3.72918 9.18001 3.64981 7.3628C3.64922 7.34965 3.646 7.33662 3.646 7.32348C3.646 5.48795 9.2326 4 16.1238 4C23.0151 4 28.6014 5.48795 28.6014 7.32348Z" fill="#E0E4D9"/>
<path d="M27.1776 8.82983C27.1776 10.4558 22.2286 11.774 16.1236 11.774C10.0186 11.774 5.06958 10.4558 5.06958 8.82983C5.06958 7.20382 10.0186 5.88562 16.1236 5.88562C22.2285 5.88568 27.1776 7.20382 27.1776 8.82983Z" fill="#89664C"/>
<path d="M28.6016 7.42334L28.6764 14.5261C28.6764 14.5261 28.4314 23.65 15.9921 23.65C3.5528 23.65 3.57105 14.5402 3.57105 14.5402L3.64588 7.42334C3.64588 7.40276 3.64863 7.3831 3.6497 7.36282C3.72913 9.18004 9.28193 10.6469 16.1236 10.6469C22.9656 10.6469 28.5184 9.17998 28.5976 7.36264C28.5989 7.38292 28.6016 7.40264 28.6016 7.42334Z" fill="#E0E4D9"/>
<path d="M16.1235 4.67701C19.4027 4.67701 22.4777 5.01505 24.7823 5.62884C27.308 6.30154 27.9129 7.04614 27.943 7.30369C27.9423 7.31285 27.9417 7.32225 27.9412 7.3322C27.9261 7.67903 27.0595 8.41742 24.7338 9.03034C22.4351 9.6362 19.3773 9.96982 16.1236 9.96982C12.8701 9.96982 9.81228 9.6362 7.51365 9.03034C5.18795 8.41748 4.32126 7.67909 4.306 7.3287C4.30552 7.32005 4.30492 7.3114 4.30421 7.30277C4.33557 7.04442 4.94209 6.30075 7.46505 5.62884C9.76952 5.01505 12.8446 4.67701 16.1235 4.67701ZM16.1235 4C9.23242 4 3.64575 5.48789 3.64575 7.32342C3.64575 7.33656 3.64897 7.34959 3.64957 7.36274C3.729 9.18001 9.2818 10.6468 16.1235 10.6468C22.9655 10.6468 28.5183 9.17989 28.5975 7.36255C28.5982 7.3494 28.6012 7.3365 28.6012 7.32342C28.6013 5.48789 23.015 4 16.1235 4Z" fill="#B7C8B1"/>
</svg>
