<svg width="32" height="32" viewBox="0 0 32 32" fill="none" xmlns="http://www.w3.org/2000/svg">
<path d="M28.7534 24.1794C28.7534 25.3135 28.1114 26.3505 27.0967 26.8382C25.181 27.7591 21.5308 29 15.7704 29C10.0099 29 6.35967 27.7591 4.44398 26.8382C3.42928 26.3505 2.78735 25.3135 2.78735 24.1794C2.78735 22.5502 4.09625 21.2294 5.71086 21.2294H25.8299C27.4445 21.2294 28.7534 22.5502 28.7534 24.1794Z" fill="#FCB90A"/>
<path d="M28.6406 19.6854C28.6406 18.5513 27.9986 17.5143 26.9839 17.0266C25.0682 16.1058 21.418 14.8648 15.6576 14.8648C9.89713 14.8648 6.24687 16.1058 4.33119 17.0266C3.31649 17.5143 2.67456 18.5513 2.67456 19.6854C2.67456 19.7018 2.67552 19.718 2.6758 19.7342C2.67552 19.7506 2.67456 19.7667 2.67456 19.7831C2.67456 20.9172 3.31649 21.9542 4.33119 22.4419C6.24687 23.3627 9.89713 24.6036 15.6576 24.6036C21.418 24.6036 25.0682 23.3627 26.9839 22.4419C27.9986 21.9542 28.6406 20.9172 28.6406 19.7831C28.6406 19.7667 28.6396 19.7505 28.6393 19.7342C28.6396 19.7179 28.6406 19.7017 28.6406 19.6854Z" fill="#7A2F18"/>
<path d="M15.9463 22.5846C22.5321 22.5846 27.8709 20.7496 27.8709 18.4859C27.8709 16.2222 22.5321 14.3872 15.9463 14.3872C9.36055 14.3872 4.02173 16.2222 4.02173 18.4859C4.02173 20.7496 9.36055 22.5846 15.9463 22.5846Z" fill="#FF473E"/>
<path d="M15.9463 21.0243C22.5321 21.0243 27.8709 19.1893 27.8709 16.9256C27.8709 14.6619 22.5321 12.8269 15.9463 12.8269C9.36055 12.8269 4.02173 14.6619 4.02173 16.9256C4.02173 19.1893 9.36055 21.0243 15.9463 21.0243Z" fill="#FF473E"/>
<path d="M28.8721 14.3436C27.5091 13.5802 25.5171 13.2798 23.7659 13.2806C22.8106 13.281 21.8381 13.3816 20.9264 13.5697C20.2162 13.7162 19.5221 13.9016 18.7918 13.997C18.6693 14.0021 18.5468 14.0032 18.4243 14.0004C18.3403 13.9873 18.2567 13.9718 18.1736 13.9538C17.8708 13.8512 17.5833 13.7311 17.2898 13.6163C16.8195 13.4324 16.327 13.2886 15.8205 13.153C14.9294 12.9145 13.9908 12.8007 13.0357 12.7439C11.232 12.6365 9.37256 12.9108 7.7689 13.462C7.5121 13.4834 7.25876 13.5357 7.01428 13.6178C5.37728 14.1686 3.99088 15.0479 3.01719 16.0748C2.81041 16.2929 2.62733 16.521 2.47019 16.7565C2.12765 17.2701 1.82036 17.7983 2.12421 18.3662C2.6931 19.4296 4.39326 19.8175 5.95727 19.568C7.03605 19.3959 7.87725 18.9243 8.72324 18.4782C8.93532 18.3768 9.15484 18.2843 9.38638 18.2049C9.4121 18.1994 9.43776 19.162 9.46365 19.157C9.68058 19.2883 9.88487 19.4287 10.1066 19.5569C10.4843 19.7753 10.8883 19.9857 11.318 20.1581C12.198 20.5114 13.2504 20.7376 14.2858 20.7312C15.3437 20.7248 16.354 20.501 17.1887 20.0738C17.6334 19.8462 17.9981 19.5778 18.28 19.2508C18.3831 19.1312 18.4722 19.0073 18.5698 18.8866C18.6496 18.9005 19.2535 18.1341 19.4641 18.2351C19.9913 18.515 20.506 18.8093 21.0774 19.0481C21.8675 19.3782 22.7973 19.5764 23.7351 19.5781C25.5407 19.5814 27.2442 18.8911 28.4978 18.0777C29.1447 17.6579 29.7497 17.1008 29.9276 16.501C30.1632 15.7064 29.8272 14.8786 28.8721 14.3436ZM10.3822 15.5877C10.7594 15.5061 11.1403 15.4433 11.5236 15.3997C12.0524 15.3662 12.5828 15.3662 13.1115 15.3997C13.608 15.4563 14.0933 15.5427 14.5651 15.6597C14.9392 15.779 15.2908 16.8904 15.6489 17.0279C15.2861 17.3114 15.0817 17.6497 14.7829 17.9624C14.7677 17.9728 14.752 17.9828 14.7364 17.9929C14.6976 18.0085 14.6586 18.0234 14.6193 18.0376C14.5458 18.0527 14.472 18.0659 14.3979 18.0773C14.3029 18.0798 14.2079 18.0797 14.113 18.0769C13.9714 18.0557 13.8306 18.0291 13.6909 17.9973C13.4665 17.9225 13.2464 17.8351 13.0316 17.7357C12.6378 17.5129 12.2816 17.2639 11.8705 17.0535C11.4265 16.8263 10.9224 15.679 10.3822 15.5877ZM25.1956 16.481C24.9085 16.6174 24.6093 16.7403 24.2928 16.8439C24.1523 16.876 24.0106 16.9028 23.868 16.9241C23.7945 16.9259 23.721 16.926 23.6475 16.9245C23.5746 16.9129 23.502 16.8994 23.4297 16.8842C23.1781 16.7977 22.9415 16.695 22.7122 16.5839C22.4416 16.4393 22.1742 16.2898 21.9 16.1471C22.2747 16.0699 22.6524 16.0022 23.0404 15.9556C23.5341 15.9251 24.0292 15.9254 24.5229 15.9565C24.9273 16.0034 25.3289 16.0724 25.7259 16.1632C25.5585 16.2755 25.3802 16.3805 25.1956 16.481Z" fill="#00B89C"/>
<path d="M7.89246 20.4413C7.13547 19.2057 5.68032 16.928 3.86226 14.5569C1.24999 15.0042 22.0692 11.4632 22.0692 11.4632C27.883 12.0811 28.651 14.9835 28.6539 16.4633C28.6548 16.937 28.2522 17.3096 27.784 17.2762C15.329 16.3863 10.6657 19.1918 9.12972 20.6172C8.75549 20.9644 8.15981 20.8776 7.89246 20.4413Z" fill="#FAD91A"/>
<path d="M15.6576 3C8.70894 3 2.67456 7.42843 2.67456 12.7626C2.67456 15.6067 8.48722 17.9123 15.6576 17.9123C22.8279 17.9123 28.6406 15.6067 28.6406 12.7626C28.6406 7.57931 22.6062 3 15.6576 3Z" fill="#FCB90A"/>
<path d="M7.51551 9.13093L8.06042 10.3223C8.0913 10.3899 8.09434 10.467 8.06885 10.5368C8.04337 10.6066 7.99146 10.6633 7.92455 10.6944C7.88563 10.7124 7.84316 10.7211 7.8004 10.7199C7.75764 10.7187 7.71571 10.7076 7.67784 10.6876L6.52912 10.0727C6.17954 9.88557 6.04642 9.44789 6.23188 9.09513C6.41733 8.74238 6.85107 8.60806 7.20066 8.79519C7.3393 8.86918 7.44995 8.98717 7.51551 9.13093ZM19.0021 4.9148C18.6525 4.72766 18.2188 4.86198 18.0333 5.21474C17.8479 5.5675 17.981 6.00517 18.3306 6.19231L19.4793 6.80716C19.5172 6.82723 19.5591 6.83828 19.6019 6.83948C19.6446 6.84067 19.6871 6.83197 19.726 6.81404C19.7929 6.78288 19.8448 6.72617 19.8703 6.65638C19.8958 6.5866 19.8928 6.50946 19.8619 6.44193L19.317 5.25054C19.2514 5.10679 19.1407 4.98882 19.0021 4.9148ZM12.5383 6.37995C12.3113 6.05281 11.8645 5.9733 11.5403 6.20238C11.2161 6.43141 11.1373 6.88228 11.3643 7.20943L12.1101 8.28427C12.1348 8.31953 12.1672 8.34862 12.2047 8.36931C12.2422 8.39 12.284 8.40173 12.3267 8.40362C12.4004 8.40658 12.4722 8.37989 12.5263 8.32944C12.5805 8.27899 12.6126 8.2089 12.6155 8.13458L12.6673 6.82349C12.6737 6.66536 12.6284 6.50951 12.5383 6.37995ZM25.7092 9.57646C25.8806 9.19895 25.7163 8.75268 25.3423 8.57971C24.9681 8.40669 24.5259 8.57248 24.3545 8.94994L23.934 9.87561C23.9109 9.9266 23.9028 9.98324 23.9108 10.0387C23.9187 10.0942 23.9424 10.1463 23.9789 10.1886C24.0154 10.2308 24.0632 10.2616 24.1166 10.2772C24.17 10.2928 24.2267 10.2925 24.2799 10.2763L25.2463 9.98323C25.4429 9.92262 25.6168 9.77982 25.7092 9.57646ZM15.0795 12.6301C14.6905 12.5569 14.3163 12.8157 14.2436 13.2082C14.1711 13.6007 14.4275 13.9784 14.8165 14.0517L16.0948 14.2924C16.1369 14.3002 16.1802 14.2981 16.2213 14.2863C16.2625 14.2746 16.3004 14.2535 16.3323 14.2247C16.3593 14.2 16.3813 14.1701 16.3969 14.1369C16.4126 14.1036 16.4215 14.0675 16.4234 14.0308C16.4252 13.994 16.4198 13.9572 16.4075 13.9225C16.3953 13.8878 16.3763 13.8559 16.3518 13.8286L15.4793 12.8557C15.3743 12.7382 15.2338 12.659 15.0795 12.6301ZM21.9692 13.726C22.1277 14.0919 22.5501 14.259 22.9127 14.0991C23.2754 13.9392 23.441 13.513 23.2825 13.147L22.7619 11.9446C22.7446 11.9051 22.7186 11.8702 22.6859 11.8424C22.6531 11.8146 22.6145 11.7948 22.573 11.7844C22.5375 11.7757 22.5007 11.7741 22.4646 11.7798C22.4286 11.7854 22.3939 11.7982 22.3628 11.8173C22.3316 11.8365 22.3045 11.8616 22.2829 11.8913C22.2614 11.9211 22.2458 11.9548 22.2372 11.9906L21.9296 13.2655C21.8924 13.4192 21.9063 13.581 21.9692 13.726ZM11.2058 13.3666C11.2513 12.9654 10.9658 12.603 10.5681 12.5571C10.1705 12.5112 9.8113 12.7993 9.76583 13.2006L9.61653 14.5189C9.61283 14.5526 9.61628 14.5867 9.62667 14.6189C9.63706 14.6511 9.65414 14.6807 9.67677 14.7057C9.7188 14.7518 9.77727 14.7793 9.83933 14.7819C9.90138 14.7846 9.96194 14.7622 10.0077 14.7199L10.9761 13.8221C11.1045 13.7031 11.186 13.5414 11.2058 13.3666ZM17.7733 10.9844C18.1448 11.1221 18.5565 10.9298 18.693 10.555C18.8294 10.1802 18.6389 9.76468 18.2674 9.627L17.0468 9.17464C17.0066 9.15994 16.9635 9.15472 16.921 9.15938C16.8785 9.16403 16.8376 9.17844 16.8014 9.20151C16.7393 9.24152 16.6955 9.3048 16.6796 9.37743C16.6637 9.45005 16.6771 9.52607 16.7167 9.58876L17.4163 10.6948C17.5006 10.8283 17.626 10.9301 17.7733 10.9844Z" fill="#FAD91A"/>
</svg>
