<svg width="32" height="32" viewBox="0 0 32 32" fill="none" xmlns="http://www.w3.org/2000/svg">
<path d="M23.92 22.328C26.0207 20.2263 27.2007 17.3764 27.2007 14.4048C27.2007 11.4333 26.0207 8.58335 23.92 6.48161C22.88 5.44148 21.6453 4.61639 20.2863 4.05346C18.9274 3.49054 17.4709 3.20081 16 3.20081C14.5291 3.20081 13.0726 3.49054 11.7137 4.05346C10.3548 4.61639 9.12004 5.44148 8.08001 6.48161C5.97936 8.58335 4.79932 11.4333 4.79932 14.4048C4.79932 17.3764 5.97936 20.2263 8.08001 22.328L10.5136 24.7264L13.7824 27.9024L13.9952 28.0912C15.2352 29.096 17.0512 29.032 18.2192 27.9024L22.1152 24.1104L23.92 22.328ZM16 19.2C14.727 19.2 13.5061 18.6943 12.6059 17.7941C11.7057 16.894 11.2 15.6731 11.2 14.4C11.2 13.127 11.7057 11.9061 12.6059 11.0059C13.5061 10.1057 14.727 9.60001 16 9.60001C17.2731 9.60001 18.494 10.1057 19.3941 11.0059C20.2943 11.9061 20.8 13.127 20.8 14.4C20.8 15.6731 20.2943 16.894 19.3941 17.7941C18.494 18.6943 17.2731 19.2 16 19.2Z" fill="#0B0B0B"/>
</svg>
