<svg width="32" height="32" viewBox="0 0 32 32" fill="none" xmlns="http://www.w3.org/2000/svg">
<path d="M5.64917 19.0513C5.64917 19.0513 6.91758 23.5132 7.24566 25.6596C7.61604 28.0834 10.0962 30 16.0263 30C21.9565 30 24.4366 28.0826 24.807 25.6596C25.1351 23.5132 26.4035 19.0513 26.4035 19.0513H5.64917Z" fill="#E0E4D9"/>
<path d="M5.72437 19.1246C5.92393 20.0743 6.27835 20.6781 6.79721 20.3665C7.31606 20.0548 8.11431 20.2161 7.87004 20.8534C7.64574 21.4377 8.64354 21.7057 9.06741 21.3645C9.47372 21.038 10.3087 20.6781 10.3893 21.4128C10.4643 22.0945 11.3217 22.2776 11.7112 21.7782C12.1103 21.2671 13.2079 21.4712 13.4075 22.0945C13.607 22.7178 14.6799 22.6305 14.9792 22.1919C15.2626 21.7766 15.5484 21.5024 16.0265 21.5024V21.486C16.5054 21.486 16.7904 21.7766 17.0738 22.1919C17.3731 22.6297 18.446 22.7178 18.6455 22.0945C18.8451 21.4712 19.9427 21.2671 20.3418 21.7782C20.7321 22.2776 21.5887 22.0945 21.6637 21.4128C21.7443 20.6781 22.5793 21.0373 22.9856 21.3645C23.4095 21.7057 24.4073 21.4377 24.183 20.8534C23.9379 20.2161 24.7369 20.0548 25.2558 20.3665C25.7747 20.6781 26.1291 20.0743 26.3286 19.1246H5.72437Z" fill="#662113"/>
<path d="M28 16.7873C28 12.9549 22.627 9.84863 16 9.84863C9.37218 9.84863 4 12.9549 4 16.7873C4 19.8795 11.1842 21.486 16 21.486C20.8158 21.486 28 19.9278 28 16.7873Z" fill="#C1694F"/>
<path d="M16.0262 29.6665C15.9204 29.6665 15.8188 29.6255 15.744 29.5524C15.6691 29.4794 15.6271 29.3803 15.6271 29.277V22.5409C15.6271 22.4376 15.6691 22.3385 15.744 22.2655C15.8188 22.1924 15.9204 22.1514 16.0262 22.1514C16.1321 22.1514 16.2336 22.1924 16.3084 22.2655C16.3833 22.3385 16.4253 22.4376 16.4253 22.5409V29.277C16.4253 29.3803 16.3833 29.4794 16.3084 29.5524C16.2336 29.6255 16.1321 29.6665 16.0262 29.6665ZM10.6788 28.6786C10.5818 28.6785 10.4882 28.644 10.4153 28.5815C10.3425 28.519 10.2954 28.4328 10.2828 28.339L9.45985 22.1202C9.44648 22.0177 9.47525 21.9141 9.53987 21.8322C9.60449 21.7503 9.6997 21.6967 9.80469 21.6831C9.85674 21.6762 9.90966 21.6795 9.9604 21.6928C10.0111 21.706 10.0587 21.7289 10.1003 21.7602C10.1418 21.7916 10.1766 21.8306 10.2026 21.8751C10.2286 21.9197 10.2453 21.9688 10.2517 22.0197L11.0747 28.2385C11.0818 28.2934 11.0769 28.3492 11.0603 28.4021C11.0437 28.4551 11.0157 28.504 10.9783 28.5456C10.9409 28.5872 10.8948 28.6206 10.8432 28.6435C10.7915 28.6664 10.7355 28.6784 10.6788 28.6786ZM13.2164 29.439C13.1162 29.439 13.0198 29.4022 12.9461 29.3359C12.8725 29.2697 12.8271 29.1789 12.8189 29.0814L12.2537 22.4427C12.2494 22.3917 12.2554 22.3404 12.2715 22.2917C12.2875 22.243 12.3132 22.1978 12.3471 22.1588C12.381 22.1197 12.4225 22.0876 12.4691 22.0642C12.5157 22.0408 12.5666 22.0266 12.6189 22.0224C12.6712 22.0182 12.7237 22.0241 12.7737 22.0398C12.8236 22.0554 12.8699 22.0805 12.9099 22.1136C12.9499 22.1467 12.9828 22.1871 13.0067 22.2327C13.0307 22.2782 13.0453 22.3279 13.0496 22.3789L13.6147 29.0176C13.6233 29.1204 13.5897 29.2225 13.5213 29.3012C13.4529 29.3799 13.3553 29.429 13.2499 29.4375L13.2164 29.439ZM8.45965 27.0698C8.3906 27.0697 8.32371 27.0463 8.27032 27.0035C8.21693 26.9608 8.18032 26.9014 8.1667 26.8353L6.96933 21.0404C6.96153 21.0028 6.9614 20.9641 6.96893 20.9265C6.97647 20.8889 6.99153 20.8531 7.01326 20.8212C7.03498 20.7893 7.06294 20.7619 7.09554 20.7405C7.12813 20.7192 7.16472 20.7043 7.20322 20.6968C7.36127 20.6594 7.52251 20.7669 7.55604 20.9251L8.7534 26.72C8.76231 26.7624 8.7614 26.8063 8.75075 26.8483C8.74009 26.8904 8.71997 26.9296 8.69183 26.9631C8.66369 26.9966 8.62824 27.0236 8.58808 27.0421C8.54792 27.0605 8.50404 27.07 8.45965 27.0698ZM21.3114 28.5906C21.2541 28.5907 21.1975 28.5788 21.1453 28.5557C21.0932 28.5325 21.0468 28.4987 21.0092 28.4565C20.9716 28.4143 20.9438 28.3647 20.9277 28.3111C20.9115 28.2575 20.9073 28.2011 20.9154 28.1457L21.8175 22.015C21.8338 21.9134 21.8902 21.822 21.9746 21.7603C22.059 21.6986 22.1647 21.6715 22.2693 21.6847C22.3212 21.6919 22.3711 21.7091 22.4162 21.7352C22.4613 21.7613 22.5007 21.7958 22.5321 21.8367C22.5635 21.8777 22.5864 21.9243 22.5994 21.9739C22.6123 22.0234 22.6152 22.075 22.6077 22.1257L21.7057 28.2564C21.6921 28.349 21.6447 28.4338 21.5723 28.4952C21.4999 28.5566 21.4073 28.5904 21.3114 28.5906ZM18.8831 29.439L18.8496 29.4375C18.7442 29.429 18.6466 29.3799 18.5782 29.3012C18.5098 29.2225 18.4762 29.1204 18.4848 29.0176L19.05 22.3789C19.0675 22.1638 19.283 22.0096 19.4802 22.0228C19.5856 22.0313 19.6832 22.0804 19.7516 22.1591C19.82 22.2378 19.8536 22.3399 19.845 22.4427L19.2798 29.0814C19.2718 29.1788 19.2266 29.2696 19.1531 29.3359C19.0795 29.4021 18.9832 29.439 18.8831 29.439ZM23.659 27.1017C23.6149 27.1018 23.5714 27.0924 23.5315 27.0741C23.4916 27.0559 23.4564 27.0292 23.4283 26.9961C23.4002 26.9629 23.38 26.9241 23.3691 26.8825C23.3582 26.8408 23.3569 26.7973 23.3653 26.7551L24.5131 20.9282C24.5205 20.8905 24.5353 20.8547 24.5569 20.8226C24.5784 20.7906 24.6062 20.763 24.6387 20.7414C24.6711 20.7199 24.7076 20.7048 24.7461 20.697C24.7845 20.6892 24.8242 20.6888 24.8628 20.696C24.9013 20.7032 24.9381 20.7177 24.9709 20.7387C25.0038 20.7597 25.032 20.7869 25.0541 20.8185C25.0762 20.8502 25.0917 20.8859 25.0997 20.9234C25.1076 20.9609 25.108 20.9996 25.1006 21.0373L23.9528 26.8641C23.9399 26.931 23.9035 26.9913 23.8499 27.0347C23.7962 27.0781 23.7287 27.1018 23.659 27.1017Z" fill="#82957B"/>
<path d="M15.1582 2C15.1582 2 16.0259 2.89129 16.8944 2.90921C18.7048 2.94738 20.3707 3.93372 20.3707 5.64072C20.3707 5.64072 24.5703 5.64072 24.7156 9.28223C24.7156 9.28223 26.8349 9.31729 27.3202 12.9222C27.6826 15.6147 24.8952 19.3318 16.0267 19.2936C8.20787 19.2601 4.20787 16.5481 4.73312 12.9237C5.23921 9.43337 8.20867 9.28301 8.20867 9.28301C8.20867 9.28301 7.70099 4.73074 13.4204 4.73152C13.4204 4.73152 13.9999 2.91077 15.1582 2Z" fill="#FAD91A"/>
<path d="M15.9545 10.1922C18.2981 9.32895 20.443 7.7653 20.3712 5.64148C20.3712 4.97302 20.1101 4.41986 19.6911 3.9859C20.2043 6.17361 16.7767 8.66049 12.9866 9.05471C8.24424 9.54788 8.78704 6.81714 8.78704 6.81714L8.78145 6.8226C8.0766 8.01929 8.20911 9.28377 8.20911 9.28377C8.93152 11.1404 12.6601 11.406 15.9545 10.1922Z" fill="#FCB90A"/>
<path d="M24.7155 9.28304C24.7107 9.17163 24.6916 9.07424 24.6796 8.96984C24.587 8.44239 24.318 7.79652 24.0618 7.30413C23.9101 7.09767 23.7425 6.91536 23.5589 6.7572C24.4441 10.2055 19.1182 14.3526 14.0358 15.3133C7.41119 16.5645 4.73308 12.9253 4.73308 12.9253C4.46008 14.8068 5.41797 16.4383 7.48622 17.5812C15.6499 20.8293 24.7866 12.8326 24.7155 9.28304Z" fill="#FCB90A"/>
<path d="M8.59398 13.0725L7.65125 14.33C7.52577 14.4963 7.33796 14.6073 7.12885 14.6388C6.91974 14.6704 6.70635 14.6198 6.53531 14.4983C6.36494 14.3758 6.25117 14.1925 6.21886 13.9884C6.18656 13.7843 6.23833 13.576 6.36288 13.4091L7.30561 12.1516C7.43109 11.9854 7.61891 11.8743 7.82801 11.8428C8.03712 11.8113 8.25051 11.8618 8.42156 11.9834C8.77598 12.2366 8.85341 12.7266 8.59398 13.0725Z" fill="#FF473E"/>
<path d="M13.58 8.38706L12.0186 8.06062C11.8119 8.01689 11.6314 7.89505 11.5165 7.72174C11.4016 7.54843 11.3617 7.33776 11.4056 7.13583C11.4974 6.71667 11.9244 6.4471 12.3531 6.53748L13.9144 6.86392C14.3439 6.95352 14.6201 7.37033 14.5275 7.78871C14.4829 7.99055 14.3581 8.16689 14.1805 8.27906C14.0028 8.39123 13.7869 8.43007 13.58 8.38706Z" fill="#82957B"/>
<path d="M14.774 13.0507L15.8221 14.2264C16.1102 14.5497 16.0751 15.0445 15.7438 15.3257C15.5838 15.4608 15.3756 15.5286 15.1645 15.5143C14.9535 15.5 14.7568 15.4047 14.6175 15.2494L13.5694 14.0737C13.431 13.9175 13.3615 13.7143 13.3762 13.5083C13.3909 13.3023 13.4884 13.1104 13.6476 12.9744C13.8076 12.8393 14.0159 12.7715 14.2269 12.7858C14.438 12.8001 14.6346 12.8954 14.774 13.0507Z" fill="#82957B"/>
<path d="M21.1131 10.9674L19.6196 11.5182C19.4215 11.5907 19.2021 11.5836 19.0093 11.4987C18.8165 11.4137 18.666 11.2577 18.5907 11.0648C18.5165 10.8715 18.5237 10.6573 18.6107 10.4692C18.6978 10.281 18.8576 10.1341 19.0552 10.0605L20.5488 9.50973C20.7468 9.43731 20.9662 9.44435 21.159 9.52931C21.3518 9.61427 21.5023 9.77025 21.5777 9.96316C21.6519 10.1565 21.6447 10.3706 21.5576 10.5588C21.4706 10.747 21.3108 10.8939 21.1131 10.9674Z" fill="#FDC020"/>
<path d="M25.8975 12.9557L25.0992 14.3051C24.8797 14.6759 24.3888 14.8045 24.0088 14.5902C23.826 14.4865 23.6926 14.3163 23.6379 14.1169C23.5831 13.9175 23.6115 13.7051 23.7167 13.526L24.5149 12.1766C24.7344 11.8057 25.2253 11.6772 25.6053 11.8914C25.9853 12.1057 26.117 12.5841 25.8975 12.9557Z" fill="#9747FF"/>
</svg>
