<svg width="32" height="32" viewBox="0 0 32 32" fill="none" xmlns="http://www.w3.org/2000/svg">
<path d="M20.8 6.90039C24.5529 6.90046 27.7667 9.70955 27.7668 13.373C27.7668 15.8902 26.5881 18.0037 25.0364 19.7461C23.4916 21.4826 21.5013 22.9383 19.7083 24.1523L16.6165 26.2451H16.6155C16.4337 26.368 16.2196 26.4345 16.0002 26.4346C15.7807 26.4346 15.5659 26.3681 15.384 26.2451L12.2922 24.1523C10.5005 22.9383 8.50825 21.4826 6.96216 19.7461C5.41172 18.0037 4.23364 15.8902 4.23364 13.373C4.23381 9.70966 7.4467 6.90062 11.1995 6.90039C13.1061 6.90039 14.7848 7.77813 16.0002 8.91992C17.2156 7.7783 18.8923 6.90039 20.8 6.90039Z" fill="#0B0B0B" stroke="#0B0B0B" stroke-width="0.2"/>
</svg>
