<svg width="32" height="32" viewBox="0 0 32 32" fill="none" xmlns="http://www.w3.org/2000/svg">
<path fill-rule="evenodd" clip-rule="evenodd" d="M16 16V13.5L23.5 6L26 8.5L18.5 16H16Z" fill="#0B0B0B" stroke="#0B0B0B" stroke-width="2.66667" stroke-linecap="round" stroke-linejoin="round"/>
<path d="M12 16H8.5C7.83696 16 7.20107 16.2634 6.73223 16.7322C6.26339 17.2011 6 17.837 6 18.5C6 19.163 6.26339 19.7989 6.73223 20.2678C7.20107 20.7366 7.83696 21 8.5 21H23.5C24.163 21 24.7989 21.2634 25.2678 21.7322C25.7366 22.2011 26 22.837 26 23.5C26 24.163 25.7366 24.7989 25.2678 25.2678C24.7989 25.7366 24.163 26 23.5 26H13" stroke="#0B0B0B" stroke-width="2.66667" stroke-linecap="round" stroke-linejoin="round"/>
</svg>
