<svg width="32" height="32" viewBox="0 0 32 32" fill="none" xmlns="http://www.w3.org/2000/svg">
<path d="M14.5039 26.7664C9.27737 27.1013 4.61083 27.2449 2.93087 26.0008C0.550935 24.1825 3.25753 16.8136 5.21748 14.2297L28.9702 8.10492C31.9101 13.6555 28.1302 15.7131 22.997 19.3496C18.3305 22.6991 16.5572 26.575 14.5039 26.7664Z" fill="#FAD91A"/>
<path d="M15.4838 21.9814C11.4239 25.953 -0.429073 28.7283 2.65085 18.5841C4.00414 14.0862 6.61741 13.4641 6.99073 12.6507C8.01737 10.306 10.9106 9.20549 11.9373 8.87054C14.3639 8.1528 13.0106 5.99955 19.2637 6.28665C19.8237 6.3345 21.037 5.2818 22.3903 5.0904C26.0769 4.5162 28.4568 6.813 28.9701 8.1528C31.4434 14.469 24.7236 13.0335 15.4838 21.9814Z" fill="#FCB90A"/>
<path d="M4.56401 26.0965C0.550783 25.5701 2.79072 16.8136 5.68398 14.7082C8.57724 12.5549 12.6371 13.799 14.7837 17.4356C16.9303 21.1201 16.977 25.9529 13.4771 26.3357C10.5372 26.6228 7.87725 26.5271 4.56401 26.0965Z" fill="#E0E4D9"/>
<path d="M7.78412 12.6506C9.8374 12.22 11.6107 10.8323 15.2973 13.0813C17.9572 15.3302 18.4705 17.1964 18.5638 15.8087C18.9838 13.8947 15.3439 10.4974 11.9373 10.7845C8.57743 10.4495 5.45085 13.8469 7.78412 12.6506Z" fill="#C1694F"/>
<path d="M7.31736 12.6986C7.41069 12.4115 11.0039 10.2582 13.5239 11.4066C15.9038 12.4593 16.6504 13.4163 17.9571 15.3781C18.1437 15.6652 18.2371 15.9045 18.3771 16.0959C18.4237 16.0959 18.4237 16.0002 18.3771 15.7131C18.6104 14.2298 16.0905 11.0238 13.0572 10.7846C10.164 10.1625 6.71071 12.4593 7.31736 12.6986Z" fill="#662113"/>
<path d="M13.6173 8.58341C15.2039 8.24846 16.5105 7.19577 19.2638 8.91836C21.2704 10.641 21.6437 12.0286 21.7371 10.9759C22.0637 9.54041 19.3105 6.95652 16.7439 7.19577C14.2239 6.90867 11.844 9.44471 13.6173 8.58341Z" fill="#C1694F"/>
<path d="M13.2439 8.58343C13.2905 8.34418 16.0438 6.76514 17.9104 7.62643C19.6837 8.39203 20.2903 9.15763 21.2703 10.641C21.4103 10.8802 21.5036 11.0238 21.597 11.1673C21.597 11.1673 21.6436 11.0716 21.597 10.8802C21.7836 9.73183 19.8704 7.33933 17.5838 7.19579C15.3905 6.66944 12.7772 8.43988 13.2439 8.58343Z" fill="#662113"/>
<path d="M20.2902 6.28663C21.4569 6.19093 22.4835 5.52103 24.3968 7.00438C25.7034 8.39202 25.8901 9.44472 26.0301 8.67912C26.3567 7.62643 24.5368 5.56888 22.6702 5.52103C20.8502 5.18608 18.9369 6.81298 20.2902 6.28663Z" fill="#C1694F"/>
<path d="M20.0103 6.28664C20.057 6.14309 22.1569 5.18609 23.4636 5.95169C24.7235 6.66944 25.0502 7.24364 25.6569 8.39204C25.7502 8.58344 25.7968 8.72698 25.8435 8.82268C25.8435 8.82268 25.8902 8.77484 25.8902 8.63129C26.1235 7.81784 24.9102 5.90384 23.2303 5.61674C21.6903 5.09039 19.7303 6.14309 20.0103 6.28664Z" fill="#662113"/>
<path d="M4.37743 23.2734L4.89075 22.6992L4.37743 22.125L3.86411 22.6992L4.37743 23.2734ZM6.75737 16.048L7.27069 15.5217L6.75737 14.9475L6.24405 15.5217L6.75737 16.048ZM4.65743 19.4932L5.17074 18.9669L4.65743 18.3927L4.14411 18.9669L4.65743 19.4932ZM5.96406 20.0674L6.47738 19.4932L5.96406 18.9669L5.45074 19.4932L5.96406 20.0674ZM8.76398 24.3739L9.2773 23.7997L8.76398 23.2734L8.25066 23.7997L8.76398 24.3739ZM10.2106 23.2734L10.7239 22.6992L10.2106 22.125L9.69729 22.6992L10.2106 23.2734ZM13.5239 18.6798L14.0372 18.1056L13.5239 17.5792L13.0105 18.1056L13.5239 18.6798ZM11.0039 16.8615L11.5172 16.2873L11.0039 15.7609L10.4906 16.2873L11.0039 16.8615ZM14.6905 23.7997L15.2038 23.2734L14.6905 22.6992L14.1772 23.2734L14.6905 23.7997ZM14.1772 22.5078L14.6905 21.9336L14.1772 21.4072L13.6639 21.9336L14.1772 22.5078ZM11.9839 19.254L12.7772 18.3927L11.9839 17.5792L11.2373 18.3927L11.9839 19.254ZM10.0706 25.4745L10.8639 24.661L10.0706 23.7997L9.2773 24.661L10.0706 25.4745ZM3.86411 21.7422L4.61076 20.8809L3.86411 20.0674L3.0708 20.8809L3.86411 21.7422Z" fill="#B7C8B1"/>
</svg>
